<svg width="191" height="32" viewBox="0 0 191 32" fill="none" xmlns="http://www.w3.org/2000/svg">
<path d="M0.86 27L9.68 7.4H13.264L22.112 27H18.304L10.716 9.332H12.172L4.612 27H0.86ZM4.92 22.464L5.9 19.608H16.484L17.464 22.464H4.92ZM24.2687 27V12.048H27.7687V27H24.2687ZM26.0327 9.584C25.3793 9.584 24.838 9.37867 24.4087 8.968C23.998 8.55733 23.7927 8.06267 23.7927 7.484C23.7927 6.88667 23.998 6.392 24.4087 6C24.838 5.58933 25.3793 5.384 26.0327 5.384C26.686 5.384 27.218 5.58 27.6287 5.972C28.058 6.34533 28.2727 6.82133 28.2727 7.4C28.2727 8.016 28.0673 8.53867 27.6567 8.968C27.246 9.37867 26.7047 9.584 26.0327 9.584ZM40.6504 27.196C39.3811 27.196 38.2517 26.916 37.2624 26.356C36.2731 25.796 35.4891 24.956 34.9104 23.836C34.3504 22.6973 34.0704 21.26 34.0704 19.524C34.0704 17.7693 34.3597 16.332 34.9384 15.212C35.5357 14.092 36.3291 13.2613 37.3184 12.72C38.3264 12.16 39.4371 11.88 40.6504 11.88C42.1251 11.88 43.4224 12.1973 44.5424 12.832C45.6811 13.4667 46.5771 14.3533 47.2304 15.492C47.9024 16.6307 48.2384 17.9747 48.2384 19.524C48.2384 21.0733 47.9024 22.4173 47.2304 23.556C46.5771 24.6947 45.6811 25.5907 44.5424 26.244C43.4224 26.8787 42.1251 27.196 40.6504 27.196ZM32.3624 27V6.224H35.8624V15.52L35.5824 19.496L35.6944 23.472V27H32.3624ZM40.2584 24.2C41.0984 24.2 41.8451 24.0133 42.4984 23.64C43.1704 23.2667 43.7024 22.7253 44.0944 22.016C44.4864 21.3067 44.6824 20.476 44.6824 19.524C44.6824 18.5533 44.4864 17.7227 44.0944 17.032C43.7024 16.3227 43.1704 15.7813 42.4984 15.408C41.8451 15.0347 41.0984 14.848 40.2584 14.848C39.4184 14.848 38.6624 15.0347 37.9904 15.408C37.3184 15.7813 36.7864 16.3227 36.3944 17.032C36.0024 17.7227 35.8064 18.5533 35.8064 19.524C35.8064 20.476 36.0024 21.3067 36.3944 22.016C36.7864 22.7253 37.3184 23.2667 37.9904 23.64C38.6624 24.0133 39.4184 24.2 40.2584 24.2ZM51.5577 27V12.048H55.0577V27H51.5577ZM53.3217 9.584C52.6684 9.584 52.1271 9.37867 51.6977 8.968C51.2871 8.55733 51.0817 8.06267 51.0817 7.484C51.0817 6.88667 51.2871 6.392 51.6977 6C52.1271 5.58933 52.6684 5.384 53.3217 5.384C53.9751 5.384 54.5071 5.58 54.9177 5.972C55.3471 6.34533 55.5617 6.82133 55.5617 7.4C55.5617 8.016 55.3564 8.53867 54.9457 8.968C54.5351 9.37867 53.9937 9.584 53.3217 9.584ZM101.738 11.88C102.933 11.88 103.988 12.1133 104.902 12.58C105.836 13.0467 106.564 13.7653 107.086 14.736C107.609 15.688 107.87 16.92 107.87 18.432V27H104.37V18.88C104.37 17.5547 104.081 16.5653 103.502 15.912C102.924 15.2587 102.093 14.932 101.01 14.932C100.245 14.932 99.5636 15.1 98.9663 15.436C98.3876 15.772 97.9303 16.2667 97.5943 16.92C97.277 17.5733 97.1183 18.404 97.1183 19.412V27H93.6183V18.88C93.6183 17.5547 93.329 16.5653 92.7503 15.912C92.1716 15.2587 91.341 14.932 90.2583 14.932C89.493 14.932 88.8116 15.1 88.2143 15.436C87.6356 15.772 87.1783 16.2667 86.8423 16.92C86.525 17.5733 86.3663 18.404 86.3663 19.412V27H82.8663V12.048H86.1983V16.024L85.6103 14.848C86.1143 13.8773 86.8423 13.14 87.7943 12.636C88.765 12.132 89.8663 11.88 91.0983 11.88C92.4983 11.88 93.7116 12.2253 94.7383 12.916C95.7836 13.6067 96.4743 14.652 96.8103 16.052L95.4383 15.576C95.9236 14.456 96.7263 13.56 97.8463 12.888C98.9663 12.216 100.264 11.88 101.738 11.88ZM118.671 27.196C117.402 27.196 116.282 26.9627 115.311 26.496C114.34 26.0107 113.584 25.2827 113.043 24.312C112.502 23.3227 112.231 22.0813 112.231 20.588V12.048H115.731V20.112C115.731 21.456 116.03 22.464 116.627 23.136C117.243 23.7893 118.111 24.116 119.231 24.116C120.052 24.116 120.762 23.948 121.359 23.612C121.975 23.276 122.451 22.772 122.787 22.1C123.142 21.428 123.319 20.5973 123.319 19.608V12.048H126.819V27H123.487V22.968L124.075 24.2C123.571 25.1707 122.834 25.9173 121.863 26.44C120.892 26.944 119.828 27.196 118.671 27.196ZM131.401 27V12.048H134.733V16.164L134.341 14.96C134.789 13.952 135.489 13.1867 136.441 12.664C137.412 12.1413 138.616 11.88 140.053 11.88V15.212C139.904 15.1747 139.764 15.156 139.633 15.156C139.503 15.1373 139.372 15.128 139.241 15.128C137.916 15.128 136.861 15.52 136.077 16.304C135.293 17.0693 134.901 18.2173 134.901 19.748V27H131.401ZM141.927 27V24.788L151.139 13.644L151.783 14.848H142.095V12.048H154.583V14.26L145.371 25.404L144.671 24.2H154.835V27H141.927ZM167.274 27V23.976L167.078 23.332V18.04C167.078 17.0133 166.77 16.22 166.154 15.66C165.538 15.0813 164.604 14.792 163.354 14.792C162.514 14.792 161.683 14.9227 160.862 15.184C160.059 15.4453 159.378 15.8093 158.818 16.276L157.446 13.728C158.248 13.112 159.2 12.6547 160.302 12.356C161.422 12.0387 162.579 11.88 163.774 11.88C165.939 11.88 167.61 12.4027 168.786 13.448C169.98 14.4747 170.578 16.0707 170.578 18.236V27H167.274ZM162.57 27.196C161.45 27.196 160.47 27.0093 159.63 26.636C158.79 26.244 158.136 25.712 157.67 25.04C157.222 24.3493 156.998 23.5747 156.998 22.716C156.998 21.876 157.194 21.12 157.586 20.448C157.996 19.776 158.659 19.244 159.574 18.852C160.488 18.46 161.702 18.264 163.214 18.264H167.554V20.588H163.466C162.271 20.588 161.468 20.784 161.058 21.176C160.647 21.5493 160.442 22.016 160.442 22.576C160.442 23.2107 160.694 23.7147 161.198 24.088C161.702 24.4613 162.402 24.648 163.298 24.648C164.156 24.648 164.922 24.452 165.594 24.06C166.284 23.668 166.779 23.0893 167.078 22.324L167.666 24.424C167.33 25.3013 166.723 25.9827 165.846 26.468C164.987 26.9533 163.895 27.196 162.57 27.196ZM177.925 23.668L178.009 19.272L185.821 12.048H190.021L183.385 18.712L181.537 20.252L177.925 23.668ZM175.069 27V6.224H178.569V27H175.069ZM186.353 27L180.893 20.252L183.105 17.452L190.609 27H186.353Z" fill="#4A4A4A"/>
<path d="M68.816 27.28C67.2853 27.28 65.876 27.028 64.588 26.524C63.3 26.02 62.18 25.32 61.228 24.424C60.276 23.5093 59.5387 22.4453 59.016 21.232C58.4933 20 58.232 18.656 58.232 17.2C58.232 15.744 58.4933 14.4093 59.016 13.196C59.5387 11.964 60.276 10.9 61.228 10.004C62.18 9.08933 63.3 8.38 64.588 7.876C65.876 7.372 67.276 7.12 68.788 7.12C70.3187 7.12 71.7187 7.372 72.988 7.876C74.276 8.38 75.396 9.08933 76.348 10.004C77.3 10.9 78.0373 11.964 78.56 13.196C79.0827 14.4093 79.344 15.744 79.344 17.2C79.344 18.656 79.0827 20 78.56 21.232C78.0373 22.464 77.3 23.528 76.348 24.424C75.396 25.32 74.276 26.02 72.988 26.524C71.7187 27.028 70.328 27.28 68.816 27.28ZM68.788 24.088C69.7773 24.088 70.692 23.92 71.532 23.584C72.372 23.248 73.1 22.772 73.716 22.156C74.332 21.5213 74.808 20.7933 75.144 19.972C75.4987 19.132 75.676 18.208 75.676 17.2C75.676 16.192 75.4987 15.2773 75.144 14.456C74.808 13.616 74.332 12.888 73.716 12.272C73.1 11.6373 72.372 11.152 71.532 10.816C70.692 10.48 69.7773 10.312 68.788 10.312C67.7987 10.312 66.884 10.48 66.044 10.816C65.2227 11.152 64.4947 11.6373 63.86 12.272C63.244 12.888 62.7587 13.616 62.404 14.456C62.068 15.2773 61.9 16.192 61.9 17.2C61.9 18.1893 62.068 19.104 62.404 19.944C62.7587 20.784 63.244 21.5213 63.86 22.156C64.476 22.772 65.204 23.248 66.044 23.584C66.884 23.92 67.7987 24.088 68.788 24.088Z" fill="#6C91C2"/>
<g opacity="0.5" filter="url(#filter0_f_33_16)">
<mask id="path-3-outside-1_33_16" maskUnits="userSpaceOnUse" x="55" y="4" width="28" height="27" fill="black">
<rect fill="white" x="55" y="4" width="28" height="27"/>
<path d="M68.816 27.28C67.2853 27.28 65.876 27.028 64.588 26.524C63.3 26.02 62.18 25.32 61.228 24.424C60.276 23.5093 59.5387 22.4453 59.016 21.232C58.4933 20 58.232 18.656 58.232 17.2C58.232 15.744 58.4933 14.4093 59.016 13.196C59.5387 11.964 60.276 10.9 61.228 10.004C62.18 9.08933 63.3 8.38 64.588 7.876C65.876 7.372 67.276 7.12 68.788 7.12C70.3187 7.12 71.7187 7.372 72.988 7.876C74.276 8.38 75.396 9.08933 76.348 10.004C77.3 10.9 78.0373 11.964 78.56 13.196C79.0827 14.4093 79.344 15.744 79.344 17.2C79.344 18.656 79.0827 20 78.56 21.232C78.0373 22.464 77.3 23.528 76.348 24.424C75.396 25.32 74.276 26.02 72.988 26.524C71.7187 27.028 70.328 27.28 68.816 27.28ZM68.788 24.088C69.7773 24.088 70.692 23.92 71.532 23.584C72.372 23.248 73.1 22.772 73.716 22.156C74.332 21.5213 74.808 20.7933 75.144 19.972C75.4987 19.132 75.676 18.208 75.676 17.2C75.676 16.192 75.4987 15.2773 75.144 14.456C74.808 13.616 74.332 12.888 73.716 12.272C73.1 11.6373 72.372 11.152 71.532 10.816C70.692 10.48 69.7773 10.312 68.788 10.312C67.7987 10.312 66.884 10.48 66.044 10.816C65.2227 11.152 64.4947 11.6373 63.86 12.272C63.244 12.888 62.7587 13.616 62.404 14.456C62.068 15.2773 61.9 16.192 61.9 17.2C61.9 18.1893 62.068 19.104 62.404 19.944C62.7587 20.784 63.244 21.5213 63.86 22.156C64.476 22.772 65.204 23.248 66.044 23.584C66.884 23.92 67.7987 24.088 68.788 24.088Z"/>
</mask>
<path d="M64.588 26.524L65.6812 23.7303L65.6812 23.7303L64.588 26.524ZM61.228 24.424L59.1495 26.5873L59.1607 26.598L59.1719 26.6086L61.228 24.424ZM59.016 21.232L56.2543 22.4036L56.2575 22.4113L56.2608 22.4189L59.016 21.232ZM59.016 13.196L61.7712 14.3829L61.7745 14.3753L61.7777 14.3676L59.016 13.196ZM61.228 10.004L63.2841 12.1886L63.2953 12.178L63.3065 12.1673L61.228 10.004ZM64.588 7.876L65.6812 10.6697L65.6812 10.6697L64.588 7.876ZM72.988 7.876L71.8809 10.6642L71.8878 10.667L71.8948 10.6697L72.988 7.876ZM76.348 10.004L74.2695 12.1673L74.2807 12.178L74.2919 12.1886L76.348 10.004ZM78.56 13.196L75.7983 14.3676L75.8015 14.3753L75.8048 14.3829L78.56 13.196ZM78.56 21.232L75.7983 20.0604L75.7983 20.0604L78.56 21.232ZM76.348 24.424L74.2919 22.2394L74.2919 22.2394L76.348 24.424ZM72.988 26.524L71.8948 23.7303L71.8878 23.733L71.8809 23.7358L72.988 26.524ZM71.532 23.584L72.6462 26.3694L72.6462 26.3694L71.532 23.584ZM73.716 22.156L75.8373 24.2773L75.8531 24.2615L75.8687 24.2454L73.716 22.156ZM75.144 19.972L72.3803 18.8051L72.3737 18.8206L72.3674 18.8361L75.144 19.972ZM75.144 14.456L72.3586 15.5702L72.3737 15.608L72.3898 15.6453L75.144 14.456ZM73.716 12.272L71.5633 14.3614L71.5789 14.3775L71.5947 14.3933L73.716 12.272ZM71.532 10.816L72.6462 8.03057L72.6462 8.03057L71.532 10.816ZM66.044 10.816L64.9298 8.03057L64.9189 8.03492L64.9081 8.03936L66.044 10.816ZM63.86 12.272L61.7387 10.1507L61.7387 10.1507L63.86 12.272ZM62.404 14.456L59.6403 13.2891L59.6337 13.3046L59.6274 13.3201L62.404 14.456ZM62.404 19.944L59.6186 21.0582L59.6292 21.0846L59.6403 21.1109L62.404 19.944ZM63.86 22.156L61.7073 24.2454L61.7228 24.2615L61.7387 24.2773L63.86 22.156ZM66.044 23.584L67.1582 20.7986L67.1582 20.7986L66.044 23.584ZM68.816 24.28C67.6195 24.28 66.5855 24.0841 65.6812 23.7303L63.4948 29.3177C65.1665 29.9719 66.9511 30.28 68.816 30.28V24.28ZM65.6812 23.7303C64.7292 23.3577 63.9411 22.8577 63.2841 22.2394L59.1719 26.6086C60.4189 27.7823 61.8708 28.6823 63.4948 29.3177L65.6812 23.7303ZM63.3065 22.2607C62.6431 21.6233 62.1358 20.8914 61.7712 20.0451L56.2608 22.4189C56.9416 23.9993 57.9089 25.3953 59.1495 26.5873L63.3065 22.2607ZM61.7777 20.0603C61.4257 19.2305 61.232 18.2891 61.232 17.2H55.232C55.232 19.0229 55.561 20.7695 56.2543 22.4036L61.7777 20.0603ZM61.232 17.2C61.232 16.1103 61.4258 15.1847 61.7712 14.3829L56.2608 12.0091C55.5608 13.634 55.232 15.3777 55.232 17.2H61.232ZM61.7777 14.3676C62.1419 13.5093 62.6423 12.7927 63.2841 12.1886L59.1719 7.8194C57.9097 9.00733 56.9354 10.4187 56.2543 12.0243L61.7777 14.3676ZM63.3065 12.1673C63.9612 11.5383 64.742 11.0372 65.6812 10.6697L63.4948 5.08227C61.858 5.72277 60.3988 6.64035 59.1495 7.84068L63.3065 12.1673ZM65.6812 10.6697C66.5897 10.3142 67.6151 10.12 68.788 10.12V4.12C66.9369 4.12 65.1623 4.42978 63.4948 5.08227L65.6812 10.6697ZM68.788 10.12C69.9852 10.12 71.004 10.316 71.8809 10.6642L74.0951 5.08775C72.4334 4.42795 70.6521 4.12 68.788 4.12V10.12ZM71.8948 10.6697C72.834 11.0372 73.6148 11.5383 74.2695 12.1673L78.4265 7.84068C77.1772 6.64035 75.718 5.72277 74.0812 5.08227L71.8948 10.6697ZM74.2919 12.1886C74.9337 12.7927 75.4341 13.5093 75.7983 14.3676L81.3217 12.0243C80.6406 10.4187 79.6663 9.00733 78.4041 7.8194L74.2919 12.1886ZM75.8048 14.3829C76.1502 15.1847 76.344 16.1103 76.344 17.2H82.344C82.344 15.3777 82.0152 13.634 81.3152 12.0091L75.8048 14.3829ZM76.344 17.2C76.344 18.2891 76.1503 19.2305 75.7983 20.0604L81.3217 22.4036C82.015 20.7695 82.344 19.0229 82.344 17.2H76.344ZM75.7983 20.0604C75.4341 20.9187 74.9337 21.6353 74.2919 22.2394L78.4041 26.6086C79.6663 25.4207 80.6406 24.0093 81.3217 22.4036L75.7983 20.0604ZM74.2919 22.2394C73.6349 22.8577 72.8468 23.3577 71.8948 23.7303L74.0812 29.3177C75.7052 28.6823 77.1571 27.7823 78.4041 26.6086L74.2919 22.2394ZM71.8809 23.7358C70.9998 24.0856 69.9895 24.28 68.816 24.28V30.28C70.6665 30.28 72.4376 29.9704 74.0951 29.3122L71.8809 23.7358ZM68.788 27.088C70.1232 27.088 71.42 26.8599 72.6462 26.3694L70.4178 20.7986C69.964 20.9801 69.4315 21.088 68.788 21.088V27.088ZM72.6462 26.3694C73.8486 25.8885 74.9229 25.1917 75.8373 24.2773L71.5947 20.0347C71.2771 20.3523 70.8954 20.6075 70.4178 20.7986L72.6462 26.3694ZM75.8687 24.2454C76.7526 23.3348 77.44 22.2828 77.9206 21.1079L72.3674 18.8361C72.176 19.3039 71.9114 19.7079 71.5633 20.0666L75.8687 24.2454ZM77.9077 21.1389C78.434 19.8925 78.676 18.5664 78.676 17.2H72.676C72.676 17.8496 72.5633 18.3715 72.3803 18.8051L77.9077 21.1389ZM78.676 17.2C78.676 15.8347 78.4344 14.5084 77.8982 13.2667L72.3898 15.6453C72.563 16.0463 72.676 16.5493 72.676 17.2H78.676ZM77.9294 13.3418C77.4485 12.1394 76.7517 11.0651 75.8373 10.1507L71.5947 14.3933C71.9123 14.7109 72.1675 15.0926 72.3586 15.5702L77.9294 13.3418ZM75.8687 10.1826C74.9524 9.23851 73.8682 8.51938 72.6462 8.03057L70.4178 13.6014C70.8758 13.7846 71.2476 14.0362 71.5633 14.3614L75.8687 10.1826ZM72.6462 8.03057C71.42 7.5401 70.1232 7.312 68.788 7.312V13.312C69.4315 13.312 69.964 13.4199 70.4178 13.6014L72.6462 8.03057ZM68.788 7.312C67.4528 7.312 66.156 7.5401 64.9298 8.03057L67.1582 13.6014C67.612 13.4199 68.1445 13.312 68.788 13.312V7.312ZM64.9081 8.03936C63.7137 8.52796 62.6517 9.23762 61.7387 10.1507L65.9813 14.3933C66.3376 14.037 66.7316 13.776 67.1799 13.5926L64.9081 8.03936ZM61.7387 10.1507C60.8363 11.0531 60.1383 12.1094 59.6403 13.2891L65.1677 15.6229C65.379 15.1226 65.6517 14.7229 65.9813 14.3933L61.7387 10.1507ZM59.6274 13.3201C59.1252 14.5477 58.9 15.8551 58.9 17.2H64.9C64.9 16.5289 65.0108 16.007 65.1806 15.5919L59.6274 13.3201ZM58.9 17.2C58.9 18.5352 59.1281 19.832 59.6186 21.0582L65.1894 18.8298C65.0079 18.376 64.9 17.8435 64.9 17.2H58.9ZM59.6403 21.1109C60.1351 22.2829 60.8241 23.3355 61.7073 24.2454L66.0127 20.0666C65.6639 19.7071 65.3823 19.2851 65.1677 18.7771L59.6403 21.1109ZM61.7387 24.2773C62.6531 25.1917 63.7274 25.8885 64.9298 26.3694L67.1582 20.7986C66.6806 20.6075 66.2989 20.3523 65.9813 20.0347L61.7387 24.2773ZM64.9298 26.3694C66.156 26.8599 67.4528 27.088 68.788 27.088V21.088C68.1445 21.088 67.612 20.9801 67.1582 20.7986L64.9298 26.3694Z" fill="#3D91FF" mask="url(#path-3-outside-1_33_16)"/>
</g>
<defs>
<filter id="filter0_f_33_16" x="54.232" y="3.12" width="29.112" height="28.16" filterUnits="userSpaceOnUse" color-interpolation-filters="sRGB">
<feFlood flood-opacity="0" result="BackgroundImageFix"/>
<feBlend mode="normal" in="SourceGraphic" in2="BackgroundImageFix" result="shape"/>
<feGaussianBlur stdDeviation="2" result="effect1_foregroundBlur_33_16"/>
</filter>
</defs>
</svg>
